<svg xmlns="http://www.w3.org/2000/svg" viewBox="0 0 256 256">
    <defs>
        <linearGradient id="gradientPrimary" x1="0%" y1="0%" x2="100%" y2="100%">
            <stop offset="0%" stop-color="#41D1FF"/>
            <stop offset="100%" stop-color="#BD34FE"/>
        </linearGradient>
        <linearGradient id="gradientSecondary" x1="20%" y1="0%" x2="80%" y2="100%">
            <stop offset="0%" stop-color="#FFEA83"/>
            <stop offset="30%" stop-color="#FFDD35"/>
            <stop offset="100%" stop-color="#FFA800"/>
        </linearGradient>
    </defs>

    <!-- Base circle for head -->
    <circle cx="128" cy="100" r="70" fill="url(#gradientPrimary)"/>

    <!-- Stylized headset -->
    <path d="M68 90 Q48 90 48 110 L48 140 Q48 160 68 160"
          fill="none" stroke="url(#gradientSecondary)" stroke-width="12"/>
    <path d="M188 90 Q208 90 208 110 L208 140 Q208 160 188 160"
          fill="none" stroke="url(#gradientSecondary)" stroke-width="12"/>

    <!-- Abstract circuit pattern -->
    <path d="M98 85 L158 85 Q168 85 168 95 L168 105 Q168 115 158 115 L98 115 Q88 115 88 105 L88 95 Q88 85 98 85"
          fill="url(#gradientSecondary)"/>

    <!-- Body shape -->
    <path d="M78 170 L178 170 L158 240 L98 240 Z"
          fill="url(#gradientPrimary)"/>
</svg>